<svg width="463" height="288" viewBox="0 0 463 288" fill="none" xmlns="http://www.w3.org/2000/svg">
<g clip-path="url(#clip0)">
<path d="M463 106.642H268.384V111.462H463V106.642Z" fill="#E6E6E6"/>
<path d="M333.775 66.3326H284.472V107.957H333.775V66.3326Z" fill="#E6E6E6"/>
<path d="M323.914 74.6574H294.333V99.6319H323.914V74.6574Z" fill="#CCCCCC"/>
<path d="M407.47 66.3326H395.014V107.957H407.47V66.3326Z" fill="#E6E6E6"/>
<path d="M407.47 72.9048H395.014V77.7245H407.47V72.9048Z" fill="#CCCCCC"/>
<path d="M407.47 93.936H395.014V98.7556H407.47V93.936Z" fill="#CCCCCC"/>
<path d="M388.267 66.3326H375.812V107.957H388.267V66.3326Z" fill="#E6E6E6"/>
<path d="M388.267 72.9048H375.812V77.7245H388.267V72.9048Z" fill="#CCCCCC"/>
<path d="M388.267 93.936H375.812V98.7556H388.267V93.936Z" fill="#CCCCCC"/>
<path d="M418.201 66.1605L407.039 70.8262L428.914 108.129L440.077 103.463L418.201 66.1605Z" fill="#E6E6E6"/>
<path d="M421.655 72.0504L410.493 76.7161L413.026 81.0353L424.188 76.3696L421.655 72.0504Z" fill="#CCCCCC"/>
<path d="M432.708 90.8981L421.546 95.5637L424.079 99.883L435.241 95.2174L432.708 90.8981Z" fill="#CCCCCC"/>
<path d="M302.896 83.0406L309.169 92.2125L315.441 101.385H302.896H290.351L296.623 92.2125L302.896 83.0406Z" fill="#E6E6E6"/>
<path d="M313.794 84.7932L320.067 93.9651L326.339 103.137H313.794H301.25L307.522 93.9651L313.794 84.7932Z" fill="#E6E6E6"/>
<path d="M318.206 82.1059C320.212 82.1059 321.839 80.7328 321.839 79.0389C321.839 77.345 320.212 75.9719 318.206 75.9719C316.199 75.9719 314.573 77.345 314.573 79.0389C314.573 80.7328 316.199 82.1059 318.206 82.1059Z" fill="#E6E6E6"/>
<path d="M268.384 45.3014L463 45.3014V40.4818L268.384 40.4818V45.3014Z" fill="#E6E6E6"/>
<path d="M397.609 41.7963L446.912 41.7963V0.172119L397.609 0.172119V41.7963Z" fill="#E6E6E6"/>
<path d="M407.47 33.4714H437.051V8.49695L407.47 8.49695V33.4714Z" fill="#CCCCCC"/>
<path d="M323.914 41.7963H336.37V0.172119H323.914V41.7963Z" fill="#E6E6E6"/>
<path d="M323.914 11.564L336.37 11.564V6.74435L323.914 6.74435V11.564Z" fill="#CCCCCC"/>
<path d="M323.914 32.5951H336.37V27.7755H323.914V32.5951Z" fill="#CCCCCC"/>
<path d="M343.117 41.7963H355.572V0.172119H343.117V41.7963Z" fill="#E6E6E6"/>
<path d="M343.117 11.564L355.572 11.564V6.74435L343.117 6.74435V11.564Z" fill="#CCCCCC"/>
<path d="M343.117 32.5951H355.572V27.7755H343.117V32.5951Z" fill="#CCCCCC"/>
<path d="M291.307 37.3027L302.47 41.9684L324.345 4.66567L313.183 1.52808e-05L291.307 37.3027Z" fill="#E6E6E6"/>
<path d="M307.196 10.2092L318.358 14.8748L320.891 10.5556L309.729 5.88992L307.196 10.2092Z" fill="#CCCCCC"/>
<path d="M296.143 29.0569L307.305 33.7225L309.838 29.4033L298.676 24.7376L296.143 29.0569Z" fill="#CCCCCC"/>
<path d="M428.488 16.8799L422.216 26.0519L415.944 35.2238H428.488H441.033L434.76 26.0519L428.488 16.8799Z" fill="#E6E6E6"/>
<path d="M417.589 18.6325L411.317 27.8045L405.045 36.9764H417.589H430.134L423.862 27.8045L417.589 18.6325Z" fill="#E6E6E6"/>
<path d="M413.178 15.9455C415.185 15.9455 416.811 14.5723 416.811 12.8784C416.811 11.1846 415.185 9.81139 413.178 9.81139C411.172 9.81139 409.546 11.1846 409.546 12.8784C409.546 14.5723 411.172 15.9455 413.178 15.9455Z" fill="#E6E6E6"/>
<path d="M268.384 177.622L463 177.622V172.803L268.384 172.803V177.622Z" fill="#E6E6E6"/>
<path d="M397.609 174.117H446.912V132.493H397.609V174.117Z" fill="#E6E6E6"/>
<path d="M407.47 165.792H437.051V140.818H407.47V165.792Z" fill="#CCCCCC"/>
<path d="M323.914 174.117H336.37V132.493H323.914V174.117Z" fill="#E6E6E6"/>
<path d="M323.914 143.885H336.37V139.065H323.914V143.885Z" fill="#CCCCCC"/>
<path d="M323.914 164.916H336.37V160.096H323.914V164.916Z" fill="#CCCCCC"/>
<path d="M343.117 174.117H355.572V132.493H343.117V174.117Z" fill="#E6E6E6"/>
<path d="M343.117 143.885H355.572V139.065H343.117V143.885Z" fill="#CCCCCC"/>
<path d="M343.117 164.916H355.572V160.096H343.117V164.916Z" fill="#CCCCCC"/>
<path d="M291.307 169.624L302.47 174.289L324.345 136.987L313.183 132.321L291.307 169.624Z" fill="#E6E6E6"/>
<path d="M307.196 142.53L318.358 147.196L320.891 142.876L309.729 138.211L307.196 142.53Z" fill="#CCCCCC"/>
<path d="M296.143 161.378L307.305 166.043L309.838 161.724L298.676 157.059L296.143 161.378Z" fill="#CCCCCC"/>
<path d="M428.488 149.201L422.216 158.373L415.944 167.545H428.488H441.033L434.76 158.373L428.488 149.201Z" fill="#E6E6E6"/>
<path d="M417.589 150.953L411.317 160.125L405.045 169.298H417.589H430.134L423.862 160.125L417.589 150.953Z" fill="#E6E6E6"/>
<path d="M413.178 148.266C415.185 148.266 416.811 146.893 416.811 145.199C416.811 143.506 415.185 142.132 413.178 142.132C411.172 142.132 409.546 143.506 409.546 145.199C409.546 146.893 411.172 148.266 413.178 148.266Z" fill="#E6E6E6"/>
<path d="M229.258 288C355.873 288 458.516 281.845 458.516 274.253C458.516 266.661 355.873 260.507 229.258 260.507C102.642 260.507 0 266.661 0 274.253C0 281.845 102.642 288 229.258 288Z" fill="#E6E6E6"/>
<path d="M408.365 281.952C370.983 276.334 330.104 277.268 287.224 281.952C306.768 268.022 323.636 254.092 304.091 240.162C342.215 246.802 347.555 246.13 389.964 240.162C380.128 254.092 398.529 268.022 408.365 281.952Z" fill="#200A1C"/>
<path opacity="0.2" d="M408.365 281.952C370.983 276.334 330.104 277.268 287.224 281.952C306.768 268.022 323.636 254.092 304.091 240.162C342.215 246.802 347.555 246.13 389.964 240.162C380.128 254.092 398.529 268.022 408.365 281.952Z" fill="black"/>
<path d="M399.247 276.009C367.492 271.525 332.767 272.27 296.342 276.009C312.944 264.889 327.273 253.77 310.67 242.651C343.055 247.951 347.591 247.415 383.616 242.651C375.26 253.77 390.891 264.889 399.247 276.009Z" fill="#200A1C"/>
<path d="M387.152 258.093C396.497 258.093 404.072 251.697 404.072 243.808C404.072 235.919 396.497 229.524 387.152 229.524C377.808 229.524 370.232 235.919 370.232 243.808C370.232 251.697 377.808 258.093 387.152 258.093Z" fill="#2F2E41"/>
<path d="M310.344 227.24L322.068 228.89L327.93 243.186L310.996 251.984L291.457 227.24H309.693H310.344Z" fill="#A0616A"/>
<path d="M343.561 249.235C358.669 249.235 370.916 238.895 370.916 226.14C370.916 213.386 358.669 203.046 343.561 203.046C328.454 203.046 316.206 213.386 316.206 226.14C316.206 238.895 328.454 249.235 343.561 249.235Z" fill="#A0616A"/>
<path d="M192.459 142.011C192.459 142.011 126.027 148.059 114.303 146.96C102.58 145.86 97.3695 144.76 97.3695 144.76C97.3695 144.76 89.5538 153.558 93.4616 157.407C95.6502 159.625 98.2986 161.488 101.277 162.906C101.277 162.906 108.442 161.256 113.652 162.906C118.862 164.555 171.618 171.704 180.736 165.105C189.854 158.507 192.459 142.011 192.459 142.011Z" fill="#690D6B"/>
<path d="M197.018 264.631C197.018 264.631 153.381 254.183 145.566 207.995V203.596C145.566 203.596 136.932 216.384 133.842 218.992C130.26 222.016 117.56 249.235 118.211 251.984C118.862 254.733 118.211 255.833 118.211 255.833L99.3233 254.183V249.235C99.3233 249.235 109.418 223.666 110.07 217.617C110.721 211.569 135.145 169.504 135.145 169.504C135.145 169.504 144.263 153.558 159.894 169.504C175.525 185.45 176.828 196.448 176.828 196.448L197.018 229.439L197.018 264.631Z" fill="#651267"/>
<path d="M99.3234 143.111L78.4818 137.062C78.4818 137.062 58.9427 124.965 63.5018 137.062C68.0609 149.159 88.9026 175.553 94.7643 172.803C100.626 170.054 107.676 163.23 106.105 162.243C104.534 161.256 94.113 154.108 99.3234 143.111Z" fill="#2F2E41"/>
<path d="M101.843 245.988L85.0182 252.925C85.0182 252.925 64.6725 255.568 76.0192 260.523C87.3658 265.478 118.667 270.763 120.232 266.138C121.797 261.514 121.176 253.839 119.53 254.042C117.884 254.246 106.538 255.237 101.843 245.988Z" fill="#2F2E41"/>
<path d="M188.551 228.34C188.551 228.34 180.085 259.132 194.413 265.73C208.742 272.329 309.042 273.429 316.858 261.332C324.673 249.234 320.765 249.235 320.765 249.235L299.924 229.439L316.858 228.34C316.858 228.34 316.858 223.941 310.996 223.391C305.134 222.841 286.898 217.342 271.267 221.191C255.635 225.04 246.517 213.493 246.517 213.493L188.551 228.34Z" fill="#575A89"/>
<path d="M177.479 132.113L166.407 183.251L242.61 175.553L256.287 129.364L177.479 132.113Z" fill="#3F3D56"/>
<path d="M179.759 134.038L170.641 179.677L240.004 172.804L253.356 131.289L179.759 134.038Z" fill="white"/>
<path d="M169.012 183.801L166.407 183.251L165.105 185.45L185.947 234.388L187.906 233.756L188.551 230.539L169.012 183.801Z" fill="#B3B3B3"/>
<path d="M166.407 182.701L187.249 233.838L266.056 223.941L242.61 175.553L166.407 182.701Z" fill="#D0CDE1"/>
<path d="M176.828 181.051V183.801L234.794 178.302L234.143 175.553L176.828 181.051Z" fill="#3F3D56"/>
<path d="M178.131 186.55L187.249 207.995L246.517 201.946L236.097 181.601L178.131 186.55Z" fill="#3F3D56"/>
<path d="M252.379 216.793L250.425 212.394C250.425 212.394 235.445 190.399 227.63 194.798C219.814 199.197 243.912 220.642 243.912 220.642H251.728L252.379 216.793Z" fill="#A0616A"/>
<path d="M202.88 220.092L200.926 213.493C200.926 213.493 195.716 193.148 204.834 194.248C213.952 195.348 216.557 214.593 216.557 214.593L215.906 218.992L202.88 220.092Z" fill="#A0616A"/>
<path d="M218.511 217.342C218.511 217.342 201.577 215.143 200.926 218.442C200.275 221.741 197.018 271.229 213.301 272.879C229.583 274.528 310.345 281.677 301.878 264.631C293.411 247.585 280.385 249.784 280.385 249.784L225.024 254.733L218.511 217.342Z" fill="#575A89"/>
<path d="M269.638 223.666L252.379 213.493L240.981 220.917L255.31 234.113L269.638 223.666Z" fill="#575A89"/>
<path opacity="0.2" d="M223.396 233.564L226.001 254.458L270.941 252.259L231.863 251.709L223.396 233.564Z" fill="black"/>
<path d="M357.064 257.83C375.049 257.83 389.629 245.521 389.629 230.337C389.629 215.152 375.049 202.843 357.064 202.843C339.079 202.843 324.499 215.152 324.499 230.337C324.499 245.521 339.079 257.83 357.064 257.83Z" fill="#2F2E41"/>
<path d="M189.529 149.984L229.909 148.797L233.817 136.237L192.134 137.299L189.529 149.984Z" fill="#200A1C"/>
<path d="M179.108 157.132L240.33 155.483L240.981 153.283L179.759 155.103L179.108 157.132Z" fill="#E6E6E6"/>
<path d="M177.805 162.631L239.028 160.981L239.679 158.782L178.456 160.601L177.805 162.631Z" fill="#E6E6E6"/>
<path d="M177.154 167.03L238.376 165.38L239.028 163.181L177.805 165L177.154 167.03Z" fill="#E6E6E6"/>
</g>
<defs>
<clipPath id="clip0">
<rect width="463" height="288" fill="white"/>
</clipPath>
</defs>
</svg>
